#N canvas 1242 290 596 607 12;
#X obj 29 22 bng 19 250 50 0 empty empty empty 0 -10 0 12 #fcfcfc #000000 #000000;
#X obj 29 50 openpanel;
#X msg 29 82 open \$1;
#X obj 32 117 readsf~ 2;
#X msg 98 83 start;
#X msg 148 83 stop;
#X obj 56 549 dac~;
#X obj 84 347 +~ 200;
#X obj 84 316 *~ 1500;
#X obj 84 284 *~ 0.5;
#X obj 84 255 +~ 1;
#X obj 89 171 hsl 162 19 0 1 0 0 empty empty empty -2 -10 0 12 #fcfcfc #000000 #000000 0 1;
#X obj 274 228 bang;
#X obj 270 282 -;
#X floatatom 270 315 5 700 9999 0 - - - 0;
#X obj 353 231 hsl 162 19 700 6000 0 0 empty empty empty -2 -10 0 12 #fcfcfc #000000 #000000 0 1;
#X obj 345 325 hsl 162 19 0 700 0 0 empty empty empty -2 -10 0 12 #fcfcfc #000000 #000000 0 1;
#X floatatom 345 366 5 0 0 0 - - - 0;
#X floatatom 139 471 5 0 0 0 - - - 0;
#X msg 139 411 5.3;
#X obj 139 385 loadbang;
#X text 365 251 ^ Max freq. range;
#X text 366 350 ^ Min freg. range;
#X text 105 508 <- Voltage-Controlled band-pass filter;
#X obj 67 504 vcf~;
#X text 388 305 L: 0 U: 700;
#X obj 143 439 hsl 162 19 0 20 0 0 empty empty empty -2 -10 0 12 #fcfcfc #000000 #000000 0 1;
#X text 196 414 L: 0 U: 20;
#X text 382 205 L: 700 U: 6000;
#X text 89 226 ^ Low freq. Oscillator;
#X text 192 462 <- Quality factor;
#X text 123 152 L: 0 U: 1;
#X obj 85 199 osc~;
#X connect 0 0 1 0;
#X connect 1 0 2 0;
#X connect 2 0 3 0;
#X connect 3 0 24 0;
#X connect 4 0 3 0;
#X connect 5 0 3 0;
#X connect 7 0 24 1;
#X connect 8 0 7 0;
#X connect 9 0 8 0;
#X connect 10 0 9 0;
#X connect 11 0 32 0;
#X connect 12 0 13 0;
#X connect 13 0 14 0;
#X connect 13 0 8 1;
#X connect 15 0 13 0;
#X connect 16 0 7 1;
#X connect 16 0 17 0;
#X connect 16 0 13 1;
#X connect 16 0 12 0;
#X connect 19 0 26 0;
#X connect 20 0 19 0;
#X connect 24 0 6 0;
#X connect 24 0 6 1;
#X connect 26 0 24 2;
#X connect 26 0 18 0;
#X connect 32 0 10 0;
